HIERARCHY
ROOT joint_Root
{
	OFFSET 0.0 0.0 0.0
	CHANNELS 6 Xposition Yposition Zposition Zrotation Xrotation Yrotation 
	JOINT Hips
	{
		OFFSET -17.1583 93.1646 452.98
		CHANNELS 6 Xposition Yposition Zposition Zrotation Xrotation Yrotation 
		JOINT Spine
		{
			OFFSET 15.7357 0.0 0.0
			CHANNELS 6 Xposition Yposition Zposition Zrotation Xrotation Yrotation 
			JOINT Chest
			{
				OFFSET 8.98455 -0.406207 0.0
				CHANNELS 6 Xposition Yposition Zposition Zrotation Xrotation Yrotation 
				JOINT Neck
				{
					OFFSET 16.3773 0.0 0.0
					CHANNELS 6 Xposition Yposition Zposition Zrotation Xrotation Yrotation 
					JOINT Head
					{
						OFFSET 6.45672 0.0 0.0
						CHANNELS 6 Xposition Yposition Zposition Zrotation Xrotation Yrotation 
						End Site
						{
							OFFSET 0.0 0.0 0.0
						}
					}
				}
				JOINT Shoulder_L
				{
					OFFSET 12.9942 -0.242716 4.98039
					CHANNELS 6 Xposition Yposition Zposition Zrotation Xrotation Yrotation 
					JOINT UpperArm_L
					{
						OFFSET 5.34809 0.0 0.0
						CHANNELS 6 Xposition Yposition Zposition Zrotation Xrotation Yrotation 
						JOINT LowerArm_L
						{
							OFFSET 24.3286 1.87007e-05 0.0
							CHANNELS 6 Xposition Yposition Zposition Zrotation Xrotation Yrotation 
							JOINT Hand_L
							{
								OFFSET 22.2916 0.0 0.0
								CHANNELS 6 Xposition Yposition Zposition Zrotation Xrotation Yrotation 
								End Site
								{
									OFFSET 0.0 0.0 0.0
								}
							}
						}
					}
				}
				JOINT Shoulder_R
				{
					OFFSET 12.9945 -0.242716 -4.98039
					CHANNELS 6 Xposition Yposition Zposition Zrotation Xrotation Yrotation 
					JOINT UpperArm_R
					{
						OFFSET -5.34813 0.0 0.0
						CHANNELS 6 Xposition Yposition Zposition Zrotation Xrotation Yrotation 
						JOINT LowerArm_R
						{
							OFFSET -24.3289 0.000322201 0.0
							CHANNELS 6 Xposition Yposition Zposition Zrotation Xrotation Yrotation 
							JOINT Hand_R
							{
								OFFSET -22.2915 -0.000108084 0.0
								CHANNELS 6 Xposition Yposition Zposition Zrotation Xrotation Yrotation 
								End Site
								{
									OFFSET 0.0 0.0 0.0
								}
							}
						}
					}
				}
			}
		}
		JOINT UpperLeg_L
		{
			OFFSET -2.19248 -6.46944 0.0
			CHANNELS 6 Xposition Yposition Zposition Zrotation Xrotation Yrotation 
			JOINT LowerLeg_L
			{
				OFFSET 39.0811 0.0 -1.23785e-05
				CHANNELS 6 Xposition Yposition Zposition Zrotation Xrotation Yrotation 
				JOINT Foot_L
				{
					OFFSET 40.9854 0.0 -1.26872e-05
					CHANNELS 6 Xposition Yposition Zposition Zrotation Xrotation Yrotation 
					JOINT Toes_L
					{
						OFFSET 11.7543 0.0 0.0
						CHANNELS 6 Xposition Yposition Zposition Zrotation Xrotation Yrotation 
						End Site
						{
							OFFSET 0.0 0.0 0.0
						}
					}
				}
			}
		}
		JOINT UpperLeg_R
		{
			OFFSET -2.19251 6.46944 0.0
			CHANNELS 6 Xposition Yposition Zposition Zrotation Xrotation Yrotation 
			JOINT LowerLeg_R
			{
				OFFSET -39.0811 -0.00228153 -0.0401928
				CHANNELS 6 Xposition Yposition Zposition Zrotation Xrotation Yrotation 
				JOINT Foot_R
				{
					OFFSET -40.9854 0.0 0.0
					CHANNELS 6 Xposition Yposition Zposition Zrotation Xrotation Yrotation 
					JOINT Toes_R
					{
						OFFSET -11.7543 0.0 0.0
						CHANNELS 6 Xposition Yposition Zposition Zrotation Xrotation Yrotation 
						End Site
						{
							OFFSET 0.0 0.0 0.0
						}
					}
				}
			}
		}
	}
}
MOTION
Frames:	6
Frame Time:	0.0333333
0.000000 0.000000 0.000000 0.000000 0.000000 -0.000000 -1.963920 93.614400 -57.807000 90.325800 -7.075590 -1.355340 15.735700 0.000005 -0.000001 144.184000 86.817600 -143.928000 8.984550 -0.406207 -0.000000 -4.061110 5.131280 0.693105 16.377300 -0.000001 -0.000001 -0.280551 2.625540 -1.249850 6.456720 -0.000001 -0.000000 3.185820 0.912290 -0.359497 12.994200 -0.242716 4.980390 -92.862200 7.048410 -67.831600 5.348090 -0.000007 -0.000001 -54.921900 -6.689360 17.867000 24.328600 0.000019 0.000005 2.992000 23.574000 -7.447030 22.291600 -0.000001 0.000005 -13.445100 5.081920 5.524520 12.994500 -0.242716 -4.980390 89.238700 2.787000 -74.715100 -5.348130 -0.000001 -0.000004 -58.652400 21.327900 -24.842500 -24.328900 0.000322 -0.000009 -3.738440 -3.150540 -49.918700 -22.291500 -0.000108 -0.000004 7.638910 5.411560 -3.316660 -2.192480 -6.469440 -0.000000 -177.316000 -6.946000 -24.119900 39.081100 -0.000007 -0.000012 0.072093 -0.123744 30.224800 40.985400 -0.000006 -0.000013 -5.507180 3.180380 -56.097200 11.754300 -0.000000 0.000003 0.002264 0.058689 -14.196300 -2.192510 6.469440 -0.000001 178.473000 9.525050 -174.371000 -39.081100 -0.002282 -0.040193 0.000526 0.012977 12.215300 -40.985400 0.000008 0.000006 -5.753690 10.951600 -65.632800 -11.754300 -0.000006 -0.000006 0.000091 0.166128 -9.835320
0.000000 0.000000 0.000000 0.000000 0.000000 -0.000000 -1.704980 92.940300 -54.093900 89.880900 -7.829180 -2.202550 15.735700 0.000005 -0.000001 149.471000 86.502800 -149.167000 8.984550 -0.406207 -0.000000 -4.240760 5.988510 0.830144 16.377300 -0.000001 -0.000001 -1.132600 2.734860 -1.447330 6.456720 -0.000001 -0.000000 3.109970 0.584670 -0.280052 12.994200 -0.242716 4.980390 -92.563400 6.207520 -67.509100 5.348090 -0.000007 -0.000001 -50.560600 -11.187200 22.026800 24.328600 0.000019 0.000005 1.961090 15.304100 -7.391410 22.291600 -0.000001 0.000005 -9.259260 5.039350 6.463320 12.994500 -0.242716 -4.980390 89.366700 2.369540 -75.031400 -5.348130 -0.000001 -0.000004 -57.622100 18.847200 -27.716800 -24.328900 0.000322 -0.000009 -4.713310 -3.361450 -54.573000 -22.291500 -0.000108 -0.000004 7.780840 5.419420 -3.579510 -2.192480 -6.469440 -0.000000 -176.716000 -6.349640 -22.698300 39.081100 -0.000007 -0.000012 0.028524 -0.105678 15.105300 40.985400 -0.000006 -0.000013 -4.436700 3.582420 -56.587400 11.754300 -0.000000 0.000003 0.002327 0.062527 -14.040700 -2.192510 6.469440 -0.000001 177.820000 9.885390 -172.068000 -39.081100 -0.002282 -0.040193 -0.004089 0.038194 11.002300 -40.985400 0.000008 0.000006 -6.280620 12.205600 -66.035700 -11.754300 -0.000006 -0.000006 0.001157 0.145164 -10.686300
0.000000 0.000000 0.000000 0.000000 0.000000 -0.000000 -1.449280 91.799900 -50.106800 89.300600 -8.034790 -2.770670 15.735700 0.000005 -0.000001 151.572000 86.303500 -151.115000 8.984550 -0.406207 -0.000000 -4.286280 6.448450 1.157420 16.377300 -0.000001 -0.000001 -1.778860 2.833180 -1.697500 6.456720 -0.000001 -0.000000 2.817340 0.234553 -0.288763 12.994200 -0.242716 4.980390 -92.289900 5.543370 -67.512500 5.348090 -0.000007 -0.000001 -46.862500 -14.933000 24.732600 24.328600 0.000019 0.000005 1.554050 14.119400 -6.346060 22.291600 -0.000001 0.000005 0.487051 4.966060 8.010190 12.994500 -0.242716 -4.980390 89.431700 2.146600 -75.167800 -5.348130 -0.000001 -0.000004 -57.000700 16.544000 -29.816600 -24.328900 0.000322 -0.000009 -5.384770 -3.353500 -58.170700 -22.291500 -0.000108 -0.000004 8.883510 5.416050 -3.466660 -2.192480 -6.469440 -0.000000 -176.174000 -6.351790 -23.431300 39.081100 -0.000007 -0.000012 0.004397 -0.038563 6.506110 40.985400 -0.000006 -0.000013 -5.747850 4.379910 -59.853300 11.754300 -0.000000 0.000003 0.002315 0.061765 -14.071600 -2.192510 6.469440 -0.000001 177.641000 9.062290 -170.683000 -39.081100 -0.002282 -0.040193 -0.018088 0.095510 12.641800 -40.985400 0.000008 0.000006 -6.242380 11.770200 -68.074300 -11.754300 -0.000006 -0.000006 0.002202 0.112300 -12.019300
0.000000 0.000000 0.000000 0.000000 0.000000 -0.000000 -1.094590 90.610400 -45.919500 88.904700 -7.495290 -3.436630 15.735700 0.000005 -0.000001 152.317000 86.346600 -151.746000 8.984550 -0.406207 -0.000000 -4.417580 6.404560 1.390960 16.377300 -0.000001 -0.000001 -2.336570 2.805810 -1.932320 6.456720 -0.000001 -0.000000 2.454300 0.083670 -0.293369 12.994200 -0.242716 4.980390 -92.344300 5.846900 -68.106400 5.348090 -0.000007 -0.000001 -44.110700 -16.923500 25.896800 24.328600 0.000019 0.000005 1.199580 16.110000 -4.315860 22.291600 -0.000001 0.000005 14.370000 4.712300 12.852300 12.994500 -0.242716 -4.980390 89.390800 2.318050 -75.270100 -5.348130 -0.000001 -0.000004 -57.355300 14.286700 -30.464000 -24.328900 0.000322 -0.000009 -5.360340 -3.023850 -60.649000 -22.291500 -0.000108 -0.000004 10.289800 5.425150 -3.772380 -2.192480 -6.469440 -0.000000 -175.802000 -4.737050 -25.890800 39.081100 -0.000007 -0.000012 -0.003187 0.046125 3.951310 40.985400 -0.000006 -0.000013 -5.261130 4.189650 -63.188100 11.754300 -0.000000 0.000003 0.002306 0.061191 -14.094900 -2.192510 6.469440 -0.000001 177.307000 8.664850 -170.273000 -39.081100 -0.002282 -0.040193 -0.036610 0.138700 16.063600 -40.985400 0.000008 0.000006 -6.345500 11.290800 -69.800800 -11.754300 -0.000006 -0.000006 0.002179 0.054279 -14.371500
0.000000 0.000000 0.000000 0.000000 0.000000 -0.000000 -0.513750 89.518200 -41.207200 89.204100 -6.778060 -4.153900 15.735700 0.000005 -0.000001 153.632000 86.538900 -153.184000 8.984550 -0.406207 -0.000000 -4.729940 6.147600 1.150390 16.377300 -0.000001 -0.000001 -2.779830 2.633700 -1.852150 6.456720 -0.000001 -0.000000 2.107380 0.139547 -0.317534 12.994200 -0.242716 4.980390 -92.584000 6.664400 -68.750500 5.348090 -0.000007 -0.000001 -43.367500 -16.573400 25.603500 24.328600 0.000019 0.000005 0.778700 16.604100 -2.722890 22.291600 -0.000001 0.000005 27.557100 4.175020 21.609000 12.994500 -0.242716 -4.980390 89.302000 2.698900 -75.493300 -5.348130 -0.000001 -0.000004 -58.815200 12.329900 -29.007100 -24.328900 0.000322 -0.000009 -5.265230 -2.763760 -62.374000 -22.291500 -0.000108 -0.000004 11.662700 5.441560 -4.339190 -2.192480 -6.469440 -0.000000 -176.524000 -3.477810 -27.780300 39.081100 -0.000007 -0.000012 -0.004064 0.045835 5.066250 40.985400 -0.000006 -0.000013 -7.536000 4.247720 -63.608400 11.754300 -0.000000 0.000003 0.002192 0.054947 -14.348000 -2.192510 6.469440 -0.000001 175.996000 8.481400 -170.015000 -39.081100 -0.002282 -0.040193 -0.046278 0.138413 19.715100 -40.985400 0.000008 0.000006 -6.909310 11.278400 -69.639900 -11.754300 -0.000006 -0.000006 -0.005112 -0.062549 -19.118200
0.000000 0.000000 0.000000 0.000000 0.000000 -0.000000 0.173592 88.762900 -36.090900 90.337300 -5.814670 -6.152100 15.735700 0.000005 -0.000001 164.507000 86.997400 -164.568000 8.984550 -0.406207 -0.000000 -6.176550 5.785230 0.190203 16.377300 -0.000001 -0.000001 -3.164900 2.389080 -1.518820 6.456720 -0.000001 -0.000000 2.036540 0.009666 0.255837 12.994200 -0.242716 4.980390 -92.649300 6.970220 -69.128400 5.348090 -0.000007 -0.000001 -44.320900 -16.341900 24.349400 24.328600 0.000019 0.000005 0.678632 14.974300 -2.624700 22.291600 -0.000001 0.000005 35.405600 3.721460 28.046500 12.994500 -0.242716 -4.980390 89.071100 3.533870 -75.262300 -5.348130 -0.000001 -0.000004 -60.481700 11.401500 -25.429500 -24.328900 0.000322 -0.000009 -5.583360 -2.869300 -62.879100 -22.291500 -0.000108 -0.000004 12.820000 5.467960 -5.291840 -2.192480 -6.469440 -0.000000 -179.172000 -2.206370 -34.717500 39.081100 -0.000007 -0.000012 -0.021733 0.074456 16.271900 40.985400 -0.000006 -0.000013 -2.906180 5.817390 -56.605800 11.754300 -0.000000 0.000003 0.001828 0.040656 -14.927600 -2.192510 6.469440 -0.000001 174.536000 7.561240 -171.613000 -39.081100 -0.002282 -0.040193 -0.024137 0.061995 23.883300 -40.985400 0.000008 0.000006 -7.500210 9.913030 -67.444500 -11.754300 -0.000006 -0.000006 -0.029887 -0.216944 -25.460500
